<svg width="126" height="52" viewBox="0 0 126 52" fill="none" xmlns="http://www.w3.org/2000/svg">
<path d="M53.7324 8.50027V50.9498H59.7638V15.711C59.7638 15.711 64.0826 18.5655 70.1816 18.5655C76.2807 18.5655 80.9285 15.711 80.9285 15.711V50.9498H86.6309V8.50027H80.9285C80.9285 8.50027 80.1743 14.5197 70.1816 14.5197C60.189 14.5197 59.7638 8.50027 59.7638 8.50027H53.7324Z" fill="white"/>
<path d="M77.2987 3.54352C77.2987 4.99562 76.0311 6.17279 74.4673 6.17279C72.9036 6.17279 71.636 4.99562 71.636 3.54352C71.636 2.09141 72.9036 0.914246 74.4673 0.914246C76.0311 0.914246 77.2987 2.09141 77.2987 3.54352Z" fill="white"/>
<path d="M68.6385 3.54352C68.6385 4.99563 67.3709 6.17279 65.8072 6.17279C64.2435 6.17279 62.9758 4.99563 62.9758 3.54352C62.9758 2.09141 64.2435 0.914246 65.8072 0.914246C67.3709 0.914246 68.6385 2.09141 68.6385 3.54352Z" fill="white"/>
<path d="M95.692 3.54352C95.692 4.99563 94.4243 6.17279 92.8606 6.17279C91.2969 6.17279 90.0293 4.99563 90.0293 3.54352C90.0293 2.09141 91.2969 0.914246 92.8606 0.914246C94.4243 0.914246 95.692 2.09141 95.692 3.54352Z" fill="white"/>
<path d="M90.0293 8.47089H95.692V50.9498H90.0293V8.47089Z" fill="white"/>
<path d="M99.0029 0.914246H104.666V50.9497H99.0029V0.914246Z" fill="white"/>
<path d="M99.0029 50.9497V47.0167H125.777V50.9498L99.0029 50.9497Z" fill="white"/>
<path d="M108.063 1.01484H112.741V44.6572H108.063V1.01484Z" fill="white"/>
<path d="M108.063 4.84733V0.914246H125.778V4.84733H108.063Z" fill="white"/>
<path d="M108.063 44.6572V40.7241H125.778V44.6572H108.063Z" fill="white"/>
<path d="M108.063 19.6136V15.6805H125.778V19.6136H108.063Z" fill="white"/>
<path d="M37.8434 46.9366V20.6793H31.8126V46.9339C31.8126 46.9339 31.9005 51.1743 41.0998 51.1743C50.2991 51.1743 50.2991 46.9339 50.2991 46.9339C50.2991 40.233 50.2991 28.1947 50.335 18.954C50.335 14.4248 37.8434 16.5844 37.8434 11.8141V5.43719C37.8434 5.43719 37.8065 4.3381 41.0671 4.3381C44.3277 4.3381 44.3277 5.43719 44.3277 5.43719V13.9759H50.335V4.71898C50.335 4.71898 50.335 0.914246 41.0671 0.914246C31.7991 0.914246 31.8125 4.71898 31.8125 4.71898L31.8126 15.0736C31.8126 18.8458 44.3277 18.5809 44.3277 20.5046C44.3277 23.2308 44.1864 46.9339 44.1864 46.9339C44.1864 46.9339 44.1864 47.8824 41.0998 47.8824C38.0132 47.8824 37.8434 46.9366 37.8434 46.9366Z" fill="white"/>
<path d="M22.3468 47.6994C16.0607 39.0185 7.47656 23.0764 7.47656 14.4336C7.47656 5.79088 11.9768 3.64603 14.499 3.64606C17.0213 3.64608 21.3838 5.45103 21.3838 14.4193C21.3838 23.3876 13.7844 39.0185 7.49825 47.6994" stroke="#5DA399" stroke-width="5.75" stroke-miterlimit="1.5371" stroke-linecap="square"/>
<path d="M8.14301 51.6787L3.52574 48.3361L0.869141 51.712L8.14301 51.6787Z" fill="#5DA399"/>
<path d="M21.7034 51.6784L26.324 48.3328L29.0225 51.7111L21.7034 51.6784Z" fill="#5DA399"/>
</svg>
